<svg width="401" height="293" viewBox="0 0 401 293" fill="none" xmlns="http://www.w3.org/2000/svg">
<path d="M210.365 183.669C134.605 109.774 223.163 35.5452 276.912 7.66796C287.576 2.13677 303.36 -1.48582 309.758 0.594622C319.996 3.92334 308.905 22.2307 296.108 38.8739C283.31 55.517 279.898 106.695 294.401 131.243C309.112 156.141 370.838 206.052 383.983 211.546C401.899 219.036 403.606 218.62 398.487 224.445C389.102 236.095 286.126 257.565 210.365 183.669Z" fill="#FEFF86"/>
<path d="M241.506 106.695C243.923 102.811 251.147 97.3744 260.702 106.695" stroke="black" stroke-width="4" stroke-linecap="round"/>
<path d="M4.42554 180C-17.9745 248.8 50.0922 263.667 86.9255 262.5C113.425 269 178.425 283.9 226.425 291.5C286.425 301 329.425 227.5 329.425 180C329.425 142 272.425 164.167 243.925 180C240.092 148.667 219.225 86 166.425 86C113.625 86 108.092 122.333 111.925 140.5C85.4254 125 26.8255 111.2 4.42554 180Z" fill="#E1F0F7"/>
<path d="M142.5 220.5C142.5 230.5 144 236 147 237C150 238 158 233.5 159.5 226" stroke="black" stroke-width="4" stroke-linecap="round" stroke-linejoin="round"/>
<path d="M131.392 172.674C135.048 175.341 134.1 181.36 133.169 184.036C129.876 184.551 123.15 184.692 122.593 181.135C121.898 176.689 126.822 169.34 131.392 172.674Z" fill="black"/>
<path d="M199.533 187.358C203.452 189.62 203.15 195.706 202.51 198.466C199.29 199.329 192.617 200.185 191.685 196.707C190.521 192.361 194.634 184.529 199.533 187.358Z" fill="black"/>
</svg>
